{
  "accessors": [
    {
      "bufferView": 2,
      "componentType": 5126,
      "count": 12025,
      "max": [
        48.665935516357422,
        39.226829528808594,
        48.583606719970703
      ],
      "min": [
        -48.665935516357422,
        -0.88518905639648438,
        -48.583606719970703
      ],
      "type": "VEC3"
    },
    {
      "bufferView": 2,
      "byteOffset": 144300,
      "componentType": 5126,
      "count": 12025,
      "max": [
        1,
        1,
        1
      ],
      "min": [
        -1,
        -1,
        -1
      ],
      "type": "VEC3"
    },
    {
      "bufferView": 3,
      "componentType": 5126,
      "count": 12025,
      "max": [
        1,
        0.99461710453033447,
        1,
        1
      ],
      "min": [
        -1,
        -0.99930983781814575,
        -1,
        1
      ],
      "type": "VEC4"
    },
    {
      "bufferView": 1,
      "componentType": 5126,
      "count": 12025,
      "max": [
        1,
        1.2109718322753906
      ],
      "min": [
        -1,
        -0.85351502895355225
      ],
      "type": "VEC2"
    },
    {
      "bufferView": 1,
      "byteOffset": 96200,
      "componentType": 5126,
      "count": 12025,
      "max": [
        1,
        1.2109718322753906
      ],
      "min": [
        -1,
        -0.85351502895355225
      ],
      "type": "VEC2"
    },
    {
      "bufferView": 1,
      "byteOffset": 192400,
      "componentType": 5126,
      "count": 12025,
      "max": [
        1,
        1.2109718322753906
      ],
      "min": [
        -1,
        -0.85351502895355225
      ],
      "type": "VEC2"
    },
    {
      "bufferView": 1,
      "byteOffset": 288600,
      "componentType": 5126,
      "count": 12025,
      "max": [
        1,
        1.2109718322753906
      ],
      "min": [
        -1,
        -0.85351502895355225
      ],
      "type": "VEC2"
    },
    {
      "bufferView": 1,
      "byteOffset": 384800,
      "componentType": 5126,
      "count": 12025,
      "max": [
        1,
        1.2109718322753906
      ],
      "min": [
        -1,
        -0.85351502895355225
      ],
      "type": "VEC2"
    },
    {
      "bufferView": 0,
      "componentType": 5125,
      "count": 48330,
      "max": [
        12024
      ],
      "min": [
        0
      ],
      "type": "SCALAR"
    }
  ],
  "asset": {
    "extras": {
      "author": "fudailshajahan (https://sketchfab.com/fudailshajahan)",
      "license": "CC-BY-4.0 (http://creativecommons.org/licenses/by/4.0/)",
      "source": "https://sketchfab.com/3d-models/retro-ufo-a198a969caed46f4b58ff30167339650",
      "title": "Retro UFO"
    },
    "generator": "Sketchfab-9.47.0",
    "version": "2.0"
  },
  "bufferViews": [
    {
      "buffer": 0,
      "byteLength": 193320,
      "byteOffset": 0,
      "name": "floatBufferViews",
      "target": 34963
    },
    {
      "buffer": 0,
      "byteLength": 481000,
      "byteOffset": 193320,
      "byteStride": 8,
      "name": "floatBufferViews",
      "target": 34962
    },
    {
      "buffer": 0,
      "byteLength": 288600,
      "byteOffset": 674320,
      "byteStride": 12,
      "name": "floatBufferViews",
      "target": 34962
    },
    {
      "buffer": 0,
      "byteLength": 192400,
      "byteOffset": 962920,
      "byteStride": 16,
      "name": "floatBufferViews",
      "target": 34962
    }
  ],
  "buffers": [
    {
      "byteLength": 1155320,
      "uri": "scene.bin"
    }
  ],
  "extensionsRequired": [
    "KHR_materials_pbrSpecularGlossiness"
  ],
  "extensionsUsed": [
    "KHR_materials_pbrSpecularGlossiness"
  ],
  "images": [
    {
      "uri": "textures/material_0_diffuse.png"
    },
    {
      "uri": "textures/material_0_specularGlossiness.png"
    },
    {
      "uri": "textures/material_0_emissive.png"
    },
    {
      "uri": "textures/material_0_normal.png"
    }
  ],
  "materials": [
    {
      "doubleSided": true,
      "emissiveFactor": [
        1,
        1,
        1
      ],
      "emissiveTexture": {
        "index": 2,
        "texCoord": 0
      },
      "extensions": {
        "KHR_materials_pbrSpecularGlossiness": {
          "diffuseFactor": [
            1,
            1,
            1,
            1
          ],
          "diffuseTexture": {
            "index": 0,
            "texCoord": 0
          },
          "glossinessFactor": 1,
          "specularFactor": [
            1,
            1,
            1
          ],
          "specularGlossinessTexture": {
            "index": 1,
            "texCoord": 0
          }
        }
      },
      "name": "material_0",
      "normalTexture": {
        "index": 3,
        "scale": 1,
        "texCoord": 0
      }
    }
  ],
  "meshes": [
    {
      "primitives": [
        {
          "attributes": {
            "NORMAL": 1,
            "POSITION": 0,
            "TANGENT": 2,
            "TEXCOORD_0": 3,
            "TEXCOORD_1": 4,
            "TEXCOORD_2": 5,
            "TEXCOORD_3": 6,
            "TEXCOORD_4": 7
          },
          "indices": 8,
          "material": 0,
          "mode": 4
        }
      ]
    }
  ],
  "nodes": [
    {
      "children": [
        1
      ],
      "name": "RootNode (gltf orientation matrix)",
      "rotation": [
        -0.70710678118654746,
        -0,
        -0,
        0.70710678118654757
      ]
    },
    {
      "children": [
        2
      ],
      "name": "RootNode (model correction matrix)"
    },
    {
      "children": [
        3
      ],
      "name": "root"
    },
    {
      "children": [
        4
      ],
      "matrix": [
        1,
        0,
        0,
        0,
        0,
        2.2204460492503131e-16,
        1,
        0,
        0,
        -1,
        2.2204460492503131e-16,
        0,
        0,
        0,
        0,
        1
      ],
      "name": "GLTF_SceneRootNode"
    },
    {
      "children": [
        5
      ],
      "matrix": [
        0.0099999997764825821,
        0,
        0,
        0,
        0,
        0.0099999997764825821,
        0,
        0,
        0,
        0,
        0.0099999997764825821,
        0,
        0,
        0,
        0,
        1
      ],
      "name": "RootNode.0_0"
    },
    {
      "children": [
        6
      ],
      "name": "ufo.1_1"
    },
    {
      "mesh": 0,
      "name": ""
    }
  ],
  "samplers": [
    {
      "magFilter": 9729,
      "minFilter": 9987,
      "wrapS": 10497,
      "wrapT": 10497
    }
  ],
  "scene": 0,
  "scenes": [
    {
      "name": "OSG_Scene",
      "nodes": [
        0
      ]
    }
  ],
  "textures": [
    {
      "sampler": 0,
      "source": 0
    },
    {
      "sampler": 0,
      "source": 1
    },
    {
      "sampler": 0,
      "source": 2
    },
    {
      "sampler": 0,
      "source": 3
    }
  ]
}

