{
  "accessors": [
    {
      "bufferView": 2,
      "componentType": 5126,
      "count": 3654,
      "max": [
        223.60740661621094,
        133.6875,
        88.268302917480469
      ],
      "min": [
        -190.50199890136719,
        -133.6875,
        -54.967395782470703
      ],
      "type": "VEC3"
    },
    {
      "bufferView": 2,
      "byteOffset": 43848,
      "componentType": 5126,
      "count": 3654,
      "max": [
        1,
        1,
        1
      ],
      "min": [
        -1,
        -1,
        -1
      ],
      "type": "VEC3"
    },
    {
      "bufferView": 3,
      "componentType": 5126,
      "count": 3654,
      "max": [
        1,
        1,
        1,
        1
      ],
      "min": [
        -1,
        -1,
        -1,
        -1
      ],
      "type": "VEC4"
    },
    {
      "bufferView": 3,
      "byteOffset": 58464,
      "componentType": 5126,
      "count": 3654,
      "max": [
        1,
        1,
        1,
        1
      ],
      "min": [
        1,
        1,
        1,
        1
      ],
      "type": "VEC4"
    },
    {
      "bufferView": 1,
      "componentType": 5126,
      "count": 3654,
      "max": [
        0.97607421875,
        0.98780059814453125
      ],
      "min": [
        0.01259613037109375,
        0.02197265625
      ],
      "type": "VEC2"
    },
    {
      "bufferView": 0,
      "componentType": 5125,
      "count": 7308,
      "max": [
        3653
      ],
      "min": [
        0
      ],
      "type": "SCALAR"
    },
    {
      "bufferView": 2,
      "byteOffset": 87696,
      "componentType": 5126,
      "count": 22720,
      "max": [
        176.08010864257812,
        90.029304504394531,
        50.131610870361328
      ],
      "min": [
        -167.821044921875,
        -90.029289245605469,
        -57.736801147460938
      ],
      "type": "VEC3"
    },
    {
      "bufferView": 2,
      "byteOffset": 360336,
      "componentType": 5126,
      "count": 22720,
      "max": [
        1,
        1,
        1
      ],
      "min": [
        -1,
        -1,
        -1
      ],
      "type": "VEC3"
    },
    {
      "bufferView": 3,
      "byteOffset": 116928,
      "componentType": 5126,
      "count": 22720,
      "max": [
        1,
        1,
        1,
        1
      ],
      "min": [
        -1,
        -1,
        -1,
        -1
      ],
      "type": "VEC4"
    },
    {
      "bufferView": 3,
      "byteOffset": 480448,
      "componentType": 5126,
      "count": 22720,
      "max": [
        1,
        1,
        1,
        1
      ],
      "min": [
        1,
        1,
        1,
        1
      ],
      "type": "VEC4"
    },
    {
      "bufferView": 1,
      "byteOffset": 29232,
      "componentType": 5126,
      "count": 22720,
      "max": [
        0.98828125,
        0.99560165405273438
      ],
      "min": [
        0.01129913330078125,
        0.00439453125
      ],
      "type": "VEC2"
    },
    {
      "bufferView": 0,
      "byteOffset": 29232,
      "componentType": 5125,
      "count": 48648,
      "max": [
        22719
      ],
      "min": [
        0
      ],
      "type": "SCALAR"
    },
    {
      "bufferView": 2,
      "byteOffset": 632976,
      "componentType": 5126,
      "count": 50,
      "max": [
        -110.94818878173828,
        64.543022155761719,
        51.156005859375
      ],
      "min": [
        -131.51559448242188,
        -64.54296875,
        48.094497680664062
      ],
      "type": "VEC3"
    },
    {
      "bufferView": 2,
      "byteOffset": 633576,
      "componentType": 5126,
      "count": 50,
      "max": [
        0.59202271699905396,
        0.56859099864959717,
        0.99516534805297852
      ],
      "min": [
        -0.45257675647735596,
        -0.56859540939331055,
        0.79261243343353271
      ],
      "type": "VEC3"
    },
    {
      "bufferView": 3,
      "byteOffset": 843968,
      "componentType": 5126,
      "count": 50,
      "max": [
        0.99988037347793579,
        0.11696963012218475,
        0.45240002870559692,
        1
      ],
      "min": [
        0.80582398176193237,
        -0.11697064340114594,
        -0.5921204686164856,
        -1
      ],
      "type": "VEC4"
    },
    {
      "bufferView": 3,
      "byteOffset": 844768,
      "componentType": 5126,
      "count": 50,
      "max": [
        1,
        1,
        1,
        1
      ],
      "min": [
        1,
        1,
        1,
        1
      ],
      "type": "VEC4"
    },
    {
      "bufferView": 1,
      "byteOffset": 210992,
      "componentType": 5126,
      "count": 50,
      "max": [
        0.476318359375,
        0.660888671875
      ],
      "min": [
        0.447021484375,
        0.631103515625
      ],
      "type": "VEC2"
    },
    {
      "bufferView": 0,
      "byteOffset": 223824,
      "componentType": 5125,
      "count": 192,
      "max": [
        49
      ],
      "min": [
        0
      ],
      "type": "SCALAR"
    },
    {
      "bufferView": 2,
      "byteOffset": 634176,
      "componentType": 5126,
      "count": 87,
      "max": [
        129.6651611328125,
        18.678665161132812,
        49.520256042480469
      ],
      "min": [
        40.566856384277344,
        -18.678619384765625,
        28.978792190551758
      ],
      "type": "VEC3"
    },
    {
      "bufferView": 2,
      "byteOffset": 635220,
      "componentType": 5126,
      "count": 87,
      "max": [
        0.6563255786895752,
        0.85675334930419922,
        0.98699784278869629
      ],
      "min": [
        -0.1607358306646347,
        -0.85675328969955444,
        0.46630492806434631
      ],
      "type": "VEC3"
    },
    {
      "bufferView": 3,
      "byteOffset": 845568,
      "componentType": 5126,
      "count": 87,
      "max": [
        0.76611703634262085,
        1,
        0.54600274562835693,
        1
      ],
      "min": [
        -0.23734518885612488,
        -0.90743237733840942,
        -0.88142329454421997,
        -1
      ],
      "type": "VEC4"
    },
    {
      "bufferView": 3,
      "byteOffset": 846960,
      "componentType": 5126,
      "count": 87,
      "max": [
        1,
        1,
        1,
        1
      ],
      "min": [
        1,
        1,
        1,
        1
      ],
      "type": "VEC4"
    },
    {
      "bufferView": 1,
      "byteOffset": 211392,
      "componentType": 5126,
      "count": 87,
      "max": [
        0.7392578125,
        0.87921142578125
      ],
      "min": [
        0.6640625,
        0.7099609375
      ],
      "type": "VEC2"
    },
    {
      "bufferView": 0,
      "byteOffset": 224592,
      "componentType": 5125,
      "count": 195,
      "max": [
        86
      ],
      "min": [
        0
      ],
      "type": "SCALAR"
    }
  ],
  "asset": {
    "extras": {
      "author": "moha1 (https://sketchfab.com/moha1)",
      "license": "CC-BY-4.0 (http://creativecommons.org/licenses/by/4.0/)",
      "source": "https://sketchfab.com/3d-models/spaceship-dfb6e207312d4aeea05549ed9f6b709c",
      "title": "SpaceShip"
    },
    "generator": "Sketchfab-7.57.0",
    "version": "2.0"
  },
  "bufferViews": [
    {
      "buffer": 0,
      "byteLength": 225372,
      "byteOffset": 0,
      "name": "floatBufferViews",
      "target": 34963
    },
    {
      "buffer": 0,
      "byteLength": 212088,
      "byteOffset": 225372,
      "byteStride": 8,
      "name": "floatBufferViews",
      "target": 34962
    },
    {
      "buffer": 0,
      "byteLength": 636264,
      "byteOffset": 437460,
      "byteStride": 12,
      "name": "floatBufferViews",
      "target": 34962
    },
    {
      "buffer": 0,
      "byteLength": 848352,
      "byteOffset": 1073724,
      "byteStride": 16,
      "name": "floatBufferViews",
      "target": 34962
    }
  ],
  "buffers": [
    {
      "byteLength": 1922076,
      "uri": "scene.bin"
    }
  ],
  "extensionsRequired": [
    "KHR_materials_pbrSpecularGlossiness"
  ],
  "extensionsUsed": [
    "KHR_materials_pbrSpecularGlossiness"
  ],
  "images": [
    {
      "uri": "textures/Material_52_diffuse.png"
    },
    {
      "uri": "textures/Material_52_specularGlossiness.png"
    },
    {
      "uri": "textures/Material_52_normal.png"
    },
    {
      "uri": "textures/Material_64_diffuse.png"
    },
    {
      "uri": "textures/Material_64_specularGlossiness.png"
    },
    {
      "uri": "textures/Material_64_emissive.png"
    },
    {
      "uri": "textures/Material_64_normal.png"
    },
    {
      "uri": "textures/Material_76_diffuse.png"
    },
    {
      "uri": "textures/Material_76_specularGlossiness.png"
    },
    {
      "uri": "textures/Material_76_normal.png"
    }
  ],
  "materials": [
    {
      "doubleSided": true,
      "emissiveFactor": [
        0,
        0,
        0
      ],
      "extensions": {
        "KHR_materials_pbrSpecularGlossiness": {
          "diffuseFactor": [
            1,
            1,
            1,
            1
          ],
          "diffuseTexture": {
            "index": 0,
            "texCoord": 0
          },
          "glossinessFactor": 1,
          "specularFactor": [
            1,
            1,
            1
          ],
          "specularGlossinessTexture": {
            "index": 1,
            "texCoord": 0
          }
        }
      },
      "name": "Material_52",
      "normalTexture": {
        "index": 2,
        "scale": 1,
        "texCoord": 0
      }
    },
    {
      "doubleSided": true,
      "emissiveFactor": [
        1,
        1,
        1
      ],
      "emissiveTexture": {
        "index": 5,
        "texCoord": 0
      },
      "extensions": {
        "KHR_materials_pbrSpecularGlossiness": {
          "diffuseFactor": [
            1,
            1,
            1,
            1
          ],
          "diffuseTexture": {
            "index": 3,
            "texCoord": 0
          },
          "glossinessFactor": 0.86398070364287405,
          "specularFactor": [
            1,
            1,
            1
          ],
          "specularGlossinessTexture": {
            "index": 4,
            "texCoord": 0
          }
        }
      },
      "name": "Material_64",
      "normalTexture": {
        "index": 6,
        "scale": 1,
        "texCoord": 0
      }
    },
    {
      "doubleSided": true,
      "emissiveFactor": [
        0,
        0,
        0
      ],
      "extensions": {
        "KHR_materials_pbrSpecularGlossiness": {
          "diffuseFactor": [
            1,
            1,
            1,
            1
          ],
          "diffuseTexture": {
            "index": 7,
            "texCoord": 0
          },
          "glossinessFactor": 0.81549585515802558,
          "specularFactor": [
            1,
            1,
            1
          ],
          "specularGlossinessTexture": {
            "index": 8,
            "texCoord": 0
          }
        }
      },
      "name": "Material_76",
      "normalTexture": {
        "index": 9,
        "scale": 1,
        "texCoord": 0
      }
    }
  ],
  "meshes": [
    {
      "name": "Ship_Material #52_0",
      "primitives": [
        {
          "attributes": {
            "COLOR_0": 3,
            "NORMAL": 1,
            "POSITION": 0,
            "TANGENT": 2,
            "TEXCOORD_0": 4
          },
          "indices": 5,
          "material": 0,
          "mode": 4
        }
      ]
    },
    {
      "name": "Ship_Material #64_0",
      "primitives": [
        {
          "attributes": {
            "COLOR_0": 9,
            "NORMAL": 7,
            "POSITION": 6,
            "TANGENT": 8,
            "TEXCOORD_0": 10
          },
          "indices": 11,
          "material": 1,
          "mode": 4
        }
      ]
    },
    {
      "name": "Ship_Material #76_0",
      "primitives": [
        {
          "attributes": {
            "COLOR_0": 15,
            "NORMAL": 13,
            "POSITION": 12,
            "TANGENT": 14,
            "TEXCOORD_0": 16
          },
          "indices": 17,
          "material": 2,
          "mode": 4
        }
      ]
    },
    {
      "name": "Ship.001_Material #76_0",
      "primitives": [
        {
          "attributes": {
            "COLOR_0": 21,
            "NORMAL": 19,
            "POSITION": 18,
            "TANGENT": 20,
            "TEXCOORD_0": 22
          },
          "indices": 23,
          "material": 2,
          "mode": 4
        }
      ]
    }
  ],
  "nodes": [
    {
      "children": [
        1
      ],
      "name": "RootNode (gltf orientation matrix)",
      "rotation": [
        -0.70710678118654746,
        -0,
        -0,
        0.70710678118654757
      ]
    },
    {
      "children": [
        2
      ],
      "matrix": [
        1,
        0,
        0,
        0,
        0,
        1,
        1.6081226229577292e-16,
        0,
        0,
        -1.6081226229577292e-16,
        1,
        0,
        0,
        -0.00098856620024889708,
        -7.8828597906976938e-05,
        1
      ],
      "name": "RootNode (model correction matrix)"
    },
    {
      "children": [
        3
      ],
      "matrix": [
        1,
        0,
        0,
        0,
        0,
        0,
        1,
        0,
        0,
        -1,
        0,
        0,
        0,
        0,
        0,
        1
      ],
      "name": "Space_ship_9.fbx"
    },
    {
      "children": [
        4,
        8
      ],
      "name": "RootNode"
    },
    {
      "children": [
        5,
        6,
        7
      ],
      "matrix": [
        100,
        0,
        0,
        0,
        0,
        -1.6292067939183141e-05,
        -99.999999999998678,
        0,
        0,
        99.999999999998678,
        -1.6292067939183141e-05,
        0,
        0,
        0,
        0,
        1
      ],
      "name": "Ship"
    },
    {
      "mesh": 0,
      "name": "Ship_Material #52_0"
    },
    {
      "mesh": 1,
      "name": "Ship_Material #64_0"
    },
    {
      "mesh": 2,
      "name": "Ship_Material #76_0"
    },
    {
      "children": [
        9
      ],
      "matrix": [
        100,
        0,
        0,
        0,
        0,
        -1.6292067939183141e-05,
        -99.999999999998678,
        0,
        0,
        99.999999999998678,
        -1.6292067939183141e-05,
        0,
        0,
        0,
        0,
        1
      ],
      "name": "Ship.001"
    },
    {
      "mesh": 3,
      "name": "Ship.001_Material #76_0"
    }
  ],
  "samplers": [
    {
      "magFilter": 9729,
      "minFilter": 9987,
      "wrapS": 10497,
      "wrapT": 10497
    }
  ],
  "scene": 0,
  "scenes": [
    {
      "name": "OSG_Scene",
      "nodes": [
        0
      ]
    }
  ],
  "textures": [
    {
      "sampler": 0,
      "source": 0
    },
    {
      "sampler": 0,
      "source": 1
    },
    {
      "sampler": 0,
      "source": 2
    },
    {
      "sampler": 0,
      "source": 3
    },
    {
      "sampler": 0,
      "source": 4
    },
    {
      "sampler": 0,
      "source": 5
    },
    {
      "sampler": 0,
      "source": 6
    },
    {
      "sampler": 0,
      "source": 7
    },
    {
      "sampler": 0,
      "source": 8
    },
    {
      "sampler": 0,
      "source": 9
    }
  ]
}

